name Run_200 01_newCOP3_v24.mot
datacolumns 19
datarows 41
range 1.345833 1.3875
DataType=double
version=3
OpenSimVersion=4.3-2021-08-27-4bc7ad9
endheader
time	R_ground_force_vx	R_ground_force_vy	R_ground_force_vz	R_ground_force_px	R_ground_force_py	R_ground_force_pz	L_ground_force_vx	L_ground_force_vy	L_ground_force_vz	L_ground_force_px	L_ground_force_py	L_ground_force_pz	R_ground_torque_x	R_ground_torque_y	R_ground_torque_z	L_ground_torque_x	L_ground_torque_y	L_ground_torque_z
1.345833	0	0	0	0	0	0	-71.168526	350.489471	11.326859	1.210527	0	-0.349535	0	0	0	0	-1.857413	0
1.346875	0	0	0	0	0	0	-71.53997	367.235352	12.157862	1.208189	0	-0.349185	0	0	0	0	-1.889735	0
1.347917	0	0	0	0	0	0	-71.69708300000001	384.272797	12.932117	1.205685	0	-0.348868	0	0	0	0	-1.911205	0
1.348958	0	0	0	0	0	0	-71.662285	401.616638	13.64066	1.203028	0	-0.348587	0	0	0	0	-1.921327	0
1.35	0	0	0	0	0	0	-71.46230300000001	419.283081	14.275308	1.200236	0	-0.348343	0	0	0	0	-1.919651	0
1.351042	0	0	0	0	0	0	-71.127426	437.289185	14.828791	1.197327	0	-0.348134	0	0	0	0	-1.905776	0
1.352083	0	0	0	0	0	0	-70.690651	455.652161	15.294882	1.194324	0	-0.347961	0	0	0	0	-1.879356	0
1.353125	0	0	0	0	0	0	-70.186684	474.38913	15.668483	1.191248	0	-0.347821	0	0	0	0	-1.840101	0
1.354167	0	0	0	0	0	0	-69.650955	493.516449	15.945698	1.188126	0	-0.347711	0	0	0	0	-1.787783	0
1.355208	0	0	0	0	0	0	-69.118523	513.049438	16.123863	1.18498	0	-0.347627	0	0	0	0	-1.722232	0
1.35625	0	0	0	0	0	0	-68.62303199999999	533.001587	16.201567	1.181835	0	-0.347565	0	0	0	0	-1.643346	0
1.357292	0	0	0	0	0	0	-68.195717	553.3845209999999	16.178614	1.178713	0	-0.34752	0	0	0	0	-1.551089	0
1.358333	0	0	0	0	0	0	-67.864441	574.207214	16.055986	1.175634	0	-0.347485	0	0	0	0	-1.445491	0
1.359375	0	0	0	0	0	0	-67.652901	595.475586	15.835761	1.172616	0	-0.347455	0	0	0	0	-1.326652	0
1.360417	0	0	0	0	0	0	-67.579926	617.192078	15.521003	1.169671	0	-0.347425	0	0	0	0	-1.194739	0
1.361458	0	0	0	0	0	0	-67.658981	639.355286	15.115649	1.166812	0	-0.347388	0	0	0	0	-1.049991	0
1.3625	0	0	0	0	0	0	-67.897835	661.959595	14.624365	1.164045	0	-0.34734	0	0	0	0	-0.892715	0
1.363542	0	0	0	0	0	0	-68.29846999999999	684.9949339999999	14.052389	1.161374	0	-0.347277	0	0	0	0	-0.723285	0
1.364583	0	0	0	0	0	0	-68.857178	708.4463500000001	13.405381	1.158797	0	-0.347193	0	0	0	0	-0.542145	0
1.365625	0	0	0	0	0	0	-69.564812	732.294373	12.689258	1.156313	0	-0.347086	0	0	0	0	-0.349802	0
1.366667	0	0	0	0	0	0	-70.40728799999999	756.5143430000001	11.910034	1.153915	0	-0.346954	0	0	0	0	-0.14683	0
1.367708	0	0	0	0	0	0	-71.366165	781.076904	11.073682	1.151595	0	-0.346794	0	0	0	-0	0.066137	-0
1.36875	0	0	0	0	0	0	-72.41939499999999	805.947876	10.185994	1.149344	0	-0.346607	0	0	0	-0	0.288406	-0
1.369792	0	0	0	0	0	0	-73.542084	831.088379	9.252471	1.147151	0	-0.346393	0	0	0	-0	0.519227	-0
1.370833	0	0	0	0	0	0	-74.707336	856.455017	8.278228	1.145004	0	-0.346152	0	0	0	-0	0.757794	-0
1.371875	0	0	0	0	0	0	-75.887062	881.999939	7.267931	1.142892	0	-0.345887	0	0	0	-0	1.003255	-0
1.372917	0	0	0	0	0	0	-77.05274199999999	907.6712649999999	6.225757	1.140804	0	-0.3456	0	0	0	-0	1.254711	-0
1.373958	0	0	0	0	0	0	-78.17617799999999	933.413452	5.155382	1.138728	0	-0.345293	0	0	0	-0	1.511218	-0
1.375	0	0	0	0	0	0	-79.230133	959.167358	4.06	1.136655	0	-0.344971	0	0	0	-0	1.771797	-0
1.376042	0	0	0	0	0	0	-80.188957	984.8709720000001	2.942371	1.134577	0	-0.344637	0	0	0	-0	2.035434	-0
1.377083	0	0	0	0	0	0	-81.029068	1010.4599	1.804886	1.132485	0	-0.344295	0	0	0	-0	2.301087	-0
1.378125	0	0	0	0	0	0	-81.7295	1035.868042	0.649668	1.130374	0	-0.343948	0	0	0	-0	2.567689	-0
1.379167	0	0	0	0	0	0	-82.272324	1061.028198	-0.521324	1.12824	0	-0.343603	0	0	0	-0	2.834154	-0
1.380208	0	0	0	0	0	0	-82.643074	1085.873047	-1.706158	1.126079	0	-0.343261	0	0	0	-0	3.099383	-0
1.38125	0	0	0	0	0	0	-82.8312	1110.335815	-2.902802	1.123891	0	-0.342927	0	0	0	-0	3.362266	-0
1.382292	0	0	0	0	0	0	-82.830383	1134.351196	-4.108975	1.121676	0	-0.342605	0	0	0	-0	3.621693	-0
1.383333	0	0	0	0	0	0	-82.63896200000001	1157.856079	-5.322014	1.119435	0	-0.342299	0	0	0	-0	3.876553	-0
1.384375	0	0	0	0	0	0	-82.260139	1180.790527	-6.538736	1.117172	0	-0.342011	0	0	0	-0	4.125746	-0
1.385417	0	0	0	0	0	0	-81.70225499999999	1203.098633	-7.755319	1.11489	0	-0.341743	0	0	0	-0	4.368182	-0
1.386458	0	0	0	0	0	0	-80.97880600000001	1224.728638	-8.967199000000001	1.112596	0	-0.3415	0	0	0	-0	4.602792	-0
1.3875	0	0	0	0	0	0	-80.108383	1245.634277	-10.168987	1.110296	0	-0.341281	0	0	0	-0	4.828532	-0
